<?xml version="1.0" encoding="UTF-8" standalone="no"?>
<!-- Created with Inkscape (http://www.inkscape.org/) -->

<svg
   xmlns:osb="http://www.openswatchbook.org/uri/2009/osb"
   xmlns:dc="http://purl.org/dc/elements/1.1/"
   xmlns:cc="http://creativecommons.org/ns#"
   xmlns:rdf="http://www.w3.org/1999/02/22-rdf-syntax-ns#"
   xmlns:svg="http://www.w3.org/2000/svg"
   xmlns="http://www.w3.org/2000/svg"
   xmlns:xlink="http://www.w3.org/1999/xlink"
   xmlns:sodipodi="http://sodipodi.sourceforge.net/DTD/sodipodi-0.dtd"
   xmlns:inkscape="http://www.inkscape.org/namespaces/inkscape"
   width="210mm"
   height="297mm"
   viewBox="0 0 744.09448819 1052.3622047"
   id="svg2"
   version="1.1"
   inkscape:version="0.91 r13725"
   sodipodi:docname="dm_wavy-logo.svg"
   inkscape:export-filename="/Users/dmuni/Desktop/CAS110/hop4-2/dm_wavy-logo.png"
   inkscape:export-xdpi="72"
   inkscape:export-ydpi="72">
  <defs
     id="defs4">
    <linearGradient
       inkscape:collect="always"
       id="linearGradient5690">
      <stop
         style="stop-color:#ffedff;stop-opacity:1;"
         offset="0"
         id="stop5692" />
      <stop
         style="stop-color:#ffedff;stop-opacity:0;"
         offset="1"
         id="stop5694" />
    </linearGradient>
    <linearGradient
       inkscape:collect="always"
       id="linearGradient5674">
      <stop
         style="stop-color:#77000c;stop-opacity:1;"
         offset="0"
         id="stop5676" />
      <stop
         style="stop-color:#77000c;stop-opacity:0;"
         offset="1"
         id="stop5678" />
    </linearGradient>
    <linearGradient
       inkscape:collect="always"
       id="linearGradient4152"
       osb:paint="gradient">
      <stop
         style="stop-color:#322220;stop-opacity:1;"
         offset="0"
         id="stop4154" />
      <stop
         style="stop-color:#322220;stop-opacity:0;"
         offset="1"
         id="stop4156" />
    </linearGradient>
    <filter
       inkscape:label="Glowing Bubble"
       inkscape:menu="Ridges"
       inkscape:menu-tooltip="Bubble effect with refraction and glow"
       x="-0.25"
       y="-0.25"
       width="1.5"
       height="1.5"
       style="color-interpolation-filters:sRGB;"
       id="filter5648">
      <feGaussianBlur
         stdDeviation="1"
         result="result1"
         id="feGaussianBlur5650" />
      <feGaussianBlur
         stdDeviation="10"
         result="result6"
         in="result1"
         id="feGaussianBlur5652" />
      <feComposite
         operator="atop"
         in="result6"
         in2="result1"
         result="result8"
         id="feComposite5654" />
      <feComposite
         operator="xor"
         result="fbSourceGraphic"
         in="result6"
         in2="result8"
         id="feComposite5656" />
      <feColorMatrix
         result="fbSourceGraphicAlpha"
         in="fbSourceGraphic"
         values="0 0 0 -1 0 0 0 0 -1 0 0 0 0 -1 0 0 0 0 2 0 "
         id="feColorMatrix5658" />
      <feGaussianBlur
         result="result0"
         in="fbSourceGraphicAlpha"
         stdDeviation="1"
         id="feGaussianBlur5660" />
      <feSpecularLighting
         specularExponent="35"
         specularConstant="1.5"
         surfaceScale="-2"
         lighting-color="rgb(255,255,255)"
         result="result1"
         in="result0"
         id="feSpecularLighting5662">
        <feDistantLight
           azimuth="230"
           elevation="60"
           id="feDistantLight5664" />
      </feSpecularLighting>
      <feComposite
         operator="in"
         result="result2"
         in="result1"
         in2="fbSourceGraphicAlpha"
         id="feComposite5666" />
      <feComposite
         k3="1"
         k2="1"
         operator="arithmetic"
         result="result4"
         in="fbSourceGraphic"
         in2="result2"
         id="feComposite5668" />
      <feComposite
         operator="atop"
         in="result9"
         in2="result4"
         result="result91"
         id="feComposite5670" />
      <feBlend
         mode="multiply"
         in2="result91"
         id="feBlend5672" />
    </filter>
    <linearGradient
       inkscape:collect="always"
       xlink:href="#linearGradient5690"
       id="linearGradient5698"
       x1="127.99405"
       y1="421.2142"
       x2="693.49384"
       y2="421.2142"
       gradientUnits="userSpaceOnUse"
       gradientTransform="matrix(0.63117328,0,0,0.83654246,124.35048,81.707784)" />
    <linearGradient
       inkscape:collect="always"
       xlink:href="#linearGradient5674"
       id="linearGradient5702"
       x1="73.092499"
       y1="409.50507"
       x2="681.1933"
       y2="409.50507"
       gradientUnits="userSpaceOnUse" />
  </defs>
  <sodipodi:namedview
     id="base"
     pagecolor="#ffffff"
     bordercolor="#666666"
     borderopacity="1.0"
     inkscape:pageopacity="0.0"
     inkscape:pageshadow="2"
     inkscape:zoom="0.35"
     inkscape:cx="-92.142857"
     inkscape:cy="520"
     inkscape:document-units="px"
     inkscape:current-layer="layer1"
     showgrid="false"
     inkscape:window-width="1366"
     inkscape:window-height="660"
     inkscape:window-x="0"
     inkscape:window-y="1"
     inkscape:window-maximized="1" />
  <metadata
     id="metadata7">
    <rdf:RDF>
      <cc:Work
         rdf:about="">
        <dc:format>image/svg+xml</dc:format>
        <dc:type
           rdf:resource="http://purl.org/dc/dcmitype/StillImage" />
        <dc:title></dc:title>
      </cc:Work>
    </rdf:RDF>
  </metadata>
  <g
     inkscape:label="Layer 1"
     inkscape:groupmode="layer"
     id="layer1">
    <circle
       style="fill:url(#linearGradient5702);fill-rule:evenodd;stroke:#000000;stroke-width:1.31379783px;stroke-linecap:butt;stroke-linejoin:miter;stroke-opacity:1;fill-opacity:1;filter:url(#filter5648)"
       id="path4136"
       cx="377.14288"
       cy="409.50507"
       r="202.70026" />
    <path
       style="fill:url(#linearGradient5698);fill-opacity:1"
       id="path4150"
       d="m 226.91925,280.53746 c 18.84093,7.25303 37.89466,13.49169 56.88118,20.04258 20.80112,8.28135 42.78842,14.32262 61.69552,29.17333 2.83095,2.22358 5.44366,4.90252 8.16549,7.35379 12.77942,13.60303 20.51213,32.37798 25.68981,52.61308 3.15385,13.52421 3.57475,27.69101 3.73369,41.73094 -0.11378,14.66454 0.89503,29.47103 3.84909,43.65093 0.70606,3.38919 1.64857,6.68396 2.47285,10.02594 4.94965,15.97476 13.11833,29.6934 23.76996,39.71128 2.30205,2.16507 4.80515,3.92772 7.20771,5.89158 16.49907,12.27579 34.56432,19.67604 52.74549,26.09807 13.94508,4.33489 28.09688,7.47943 42.35106,9.32248 8.41204,0.94773 16.85987,1.06577 25.29688,1.03053 5.6304,0.47949 11.14358,-0.75665 16.67868,-1.88167 9.23555,-4.96676 1.98652,-1.16508 -20.30961,15.37111 0,0 24.91821,-12.68107 24.91821,-12.68107 l 0,0 c -24.68558,18.36949 -15.07129,16.01527 -25.85041,18.36794 -5.49572,0.91541 -10.98602,1.52279 -16.53619,1.12053 -8.38454,-0.14336 -16.78458,-0.26087 -25.11781,-1.65546 -14.0387,-2.39788 -27.96821,-5.90972 -41.68551,-10.55146 -18.37433,-6.65543 -36.59754,-14.38852 -53.32352,-26.72419 -2.50622,-2.04944 -5.11559,-3.8923 -7.51867,-6.14834 -11.06442,-10.38737 -19.28289,-24.83039 -24.48063,-41.3275 -4.39945,-17.42583 -7.59436,-35.59074 -7.40592,-54.08029 -0.11429,-13.77966 -0.3017,-27.67798 -3.02497,-41.08047 -4.58055,-19.79181 -11.7766,-38.05221 -24.13349,-51.32185 -2.59442,-2.41071 -5.08316,-5.03471 -7.78328,-7.23211 -18.42831,-14.99726 -40.00519,-21.48043 -60.5352,-29.3006 -19.70236,-6.44901 -39.49733,-12.86278 -59.53275,-17.16351 0,0 21.78234,-20.35559 21.78234,-20.35559 z"
       inkscape:connector-curvature="0" />
  </g>
</svg>
